HIERARCHY
ROOT hip
{
  OFFSET 0 0 0
  CHANNELS 6 Xposition Yposition Zposition Zrotation Yrotation Xrotation
  JOINT abdomen
  {
    OFFSET 0 20.6881 -0.73152
    CHANNELS 3 Zrotation Xrotation Yrotation
    JOINT chest
    {
      OFFSET 0 11.7043 -0.48768
      CHANNELS 3 Zrotation Xrotation Yrotation
      JOINT neck
      {
        OFFSET 0 22.1894 -2.19456
        CHANNELS 3 Zrotation Xrotation Yrotation
        JOINT head
        {
          OFFSET -0.24384 7.07133 1.2192
          CHANNELS 3 Zrotation Xrotation Yrotation
          JOINT leftEye
          {
            OFFSET 4.14528 8.04674 8.04672
            CHANNELS 3 Zrotation Xrotation Yrotation
            End Site
            {
              OFFSET 1 0 0
            }
          }
          JOINT rightEye
          {
            OFFSET -3.6576 8.04674 8.04672
            CHANNELS 3 Zrotation Xrotation Yrotation
            End Site
            {
              OFFSET 1 0 0
            }
          }
        }
      }
      JOINT rCollar
      {
        OFFSET -2.68224 19.2634 -4.8768
        CHANNELS 3 Zrotation Xrotation Yrotation
        JOINT rShldr
        {
          OFFSET -8.77824 -1.95073 1.46304
          CHANNELS 3 Zrotation Xrotation Yrotation
          JOINT rForeArm
          {
            OFFSET -28.1742 -1.7115 0.48768
            CHANNELS 3 Zrotation Xrotation Yrotation
            JOINT rHand
            {
              OFFSET -22.5879 0.773209 7.07136
              CHANNELS 3 Zrotation Xrotation Yrotation
              JOINT rThumb1
              {
                OFFSET -1.2192 -0.487915 3.41376
                CHANNELS 3 Zrotation Xrotation Yrotation
                JOINT rThumb2
                {
                  OFFSET -3.37035 -0.52449 3.41376
                  CHANNELS 3 Zrotation Xrotation Yrotation
                  End Site
                  {
                    OFFSET -1.78271 -1.18214 1.43049
                  }
                }
              }
              JOINT rIndex1
              {
                OFFSET -7.75947 0.938293 5.60832
                CHANNELS 3 Zrotation Xrotation Yrotation
                JOINT rIndex2
                {
                  OFFSET -2.54057 -0.884171 1.56538
                  CHANNELS 3 Zrotation Xrotation Yrotation
                  End Site
                  {
                    OFFSET -1.62519 -0.234802 1.16502
                  }
                }
              }
              JOINT rMid1
              {
                OFFSET -8.24714 1.18213 3.41376
                CHANNELS 3 Zrotation Xrotation Yrotation
                JOINT rMid2
                {
                  OFFSET -3.10165 -0.590103 1.0647
                  CHANNELS 3 Zrotation Xrotation Yrotation
                  End Site
                  {
                    OFFSET -2.48547 -0.328903 0.83742
                  }
                }
              }
              JOINT rRing1
              {
                OFFSET -8.82822 0.546677 1.51678
                CHANNELS 3 Zrotation Xrotation Yrotation
                JOINT rRing2
                {
                  OFFSET -2.60934 -0.819778 -0.0198488
                  CHANNELS 3 Zrotation Xrotation Yrotation
                  End Site
                  {
                    OFFSET -2.33842 -0.294052 0.168128
                  }
                }
              }
              JOINT rPinky1
              {
                OFFSET -8.27202 -0.0477905 -0.4584
                CHANNELS 3 Zrotation Xrotation Yrotation
                JOINT rPinky2
                {
                  OFFSET -1.82734 -0.647385 -0.700984
                  CHANNELS 3 Zrotation Xrotation Yrotation
                  End Site
                  {
                    OFFSET -1.69225 -0.51767 -0.607171
                  }
                }
              }
            }
          }
        }
      }
      JOINT lCollar
      {
        OFFSET 2.68224 19.2634 -4.8768
        CHANNELS 3 Zrotation Xrotation Yrotation
        JOINT lShldr
        {
          OFFSET 8.77824 -1.95073 1.46304
          CHANNELS 3 Zrotation Xrotation Yrotation
          JOINT lForeArm
          {
            OFFSET 28.1742 -1.7115 0.48768
            CHANNELS 3 Zrotation Xrotation Yrotation
            JOINT lHand
            {
              OFFSET 22.5879 0.773209 7.07136
              CHANNELS 3 Zrotation Xrotation Yrotation
              JOINT lThumb1
              {
                OFFSET 1.2192 -0.487915 3.41376
                CHANNELS 3 Zrotation Xrotation Yrotation
                JOINT lThumb2
                {
                  OFFSET 3.37035 -0.52449 3.41376
                  CHANNELS 3 Zrotation Xrotation Yrotation
                  End Site
                  {
                    OFFSET 1.78271 -1.18214 1.43049
                  }
                }
              }
              JOINT lIndex1
              {
                OFFSET 7.75947 0.938293 5.60832
                CHANNELS 3 Zrotation Xrotation Yrotation
                JOINT lIndex2
                {
                  OFFSET 2.54057 -0.884171 1.56538
                  CHANNELS 3 Zrotation Xrotation Yrotation
                  End Site
                  {
                    OFFSET 1.62519 -0.234802 1.16502
                  }
                }
              }
              JOINT lMid1
              {
                OFFSET 8.24714 1.18213 3.41376
                CHANNELS 3 Zrotation Xrotation Yrotation
                JOINT lMid2
                {
                  OFFSET 3.10165 -0.590103 1.0647
                  CHANNELS 3 Zrotation Xrotation Yrotation
                  End Site
                  {
                    OFFSET 2.48547 -0.328903 0.83742
                  }
                }
              }
              JOINT lRing1
              {
                OFFSET 8.82822 0.546677 1.51678
                CHANNELS 3 Zrotation Xrotation Yrotation
                JOINT lRing2
                {
                  OFFSET 2.60934 -0.819778 -0.0198488
                  CHANNELS 3 Zrotation Xrotation Yrotation
                  End Site
                  {
                    OFFSET 2.33842 -0.294052 0.168128
                  }
                }
              }
              JOINT lPinky1
              {
                OFFSET 8.27202 -0.0477905 -0.4584
                CHANNELS 3 Zrotation Xrotation Yrotation
                JOINT lPinky2
                {
                  OFFSET 1.82734 -0.647385 -0.700984
                  CHANNELS 3 Zrotation Xrotation Yrotation
                  End Site
                  {
                    OFFSET 1.69225 -0.51767 -0.607171
                  }
                }
              }
            }
          }
        }
      }
    }
  }
  JOINT rButtock
  {
    OFFSET -8.77824 4.35084 1.2192
    CHANNELS 3 Zrotation Xrotation Yrotation
    JOINT rThigh
    {
      OFFSET 0 -1.70687 -2.19456
      CHANNELS 3 Zrotation Xrotation Yrotation
      JOINT rShin
      {
        OFFSET 0 -36.8199 0.73152
        CHANNELS 3 Zrotation Xrotation Yrotation
        JOINT rFoot
        {
          OFFSET 0.73152 -45.1104 -5.12064
          CHANNELS 3 Zrotation Xrotation Yrotation
          End Site
          {
            OFFSET -1.1221 -3.69964 12.103
          }
        }
      }
    }
  }
  JOINT lButtock
  {
    OFFSET 8.77824 4.35084 1.2192
    CHANNELS 3 Zrotation Xrotation Yrotation
    JOINT lThigh
    {
      OFFSET 0 -1.70687 -2.19456
      CHANNELS 3 Zrotation Xrotation Yrotation
      JOINT lShin
      {
        OFFSET 0 -36.8199 0.73152
        CHANNELS 3 Zrotation Xrotation Yrotation
        JOINT lFoot
        {
          OFFSET -0.73152 -45.1104 -5.12064
          CHANNELS 3 Zrotation Xrotation Yrotation
          End Site
          {
            OFFSET 1.1221 -3.69964 12.103
          }
        }
      }
    }
  }
}
MOTION
Frames:	9
Frame Time:	0.00833333
-3.26416 83.9933 30.4948 0.0 0.0 0.0 -1.70623 -0.00254495 -0.0464504 -0.470563 0.00242746 -0.0814852 3.2475e-14 -2.38542e-15 4.22417e-16 9.71871e-14 -6.36111e-15 1.2921e-15 -0.0 0.0 0.0 -0.0 0.0 0.0 1.62503e-14 7.16324e-17 3.97569e-16 3.4314e-13 2.05618e-15 6.16232e-15 5.85649e-12 -1.70319e-12 2.54444e-14 6.70901e-11 2.04306e-12 8.96916e-13 1.58247e-10 7.3034e-13 2.00693e-12 2.73281e-10 1.26586e-12 3.44772e-12 1.58253e-10 7.31528e-13 1.99739e-12 7.73091 5.47488 0.417314 1.58247e-10 7.30335e-13 2.01011e-12 2.90554 0.965183 0.102902 1.58253e-10 7.30534e-13 2.00295e-12 10.2786 0.731801 0.0259123 1.58242e-10 7.33118e-13 2.00693e-12 2.22167 -0.733487 -0.20892 1.62521e-14 7.22147e-17 0.0 3.37295e-13 1.56543e-15 4.17448e-15 5.86688e-12 1.80874e-12 -3.18055e-15 6.71084e-11 -1.48244e-12 9.38264e-13 1.58303e-10 7.05936e-13 2.00375e-12 2.73384e-10 1.21815e-12 3.45567e-12 1.58295e-10 7.10059e-13 2.01647e-12 -7.73091 5.47488 -0.417314 1.58302e-10 7.06381e-13 1.99739e-12 -2.90554 0.965183 -0.102902 1.58299e-10 7.06381e-13 2.00057e-12 -10.2786 0.731801 -0.0259123 1.58307e-10 7.06878e-13 1.99103e-12 -2.22167 -0.733487 0.20892 -2.03217e-16 0.0 -3.88251e-19 -0.810525 -1.9244 -0.00361448 -0.00901596 -2.07859 -0.0743174 -0.483949 3.99775 0.13615 2.03217e-16 0.0 3.88251e-19 -1.78641 -6.85422 0.170475 -0.00323862 6.8514 -0.0863907 0.512956 -0.00232174 -0.0581841
-5.30943 82.4432 29.8872 3.1119 -35.5328 0.4691 -2.96355 -0.144521 -0.713829 1.12425 -0.105993 -0.276914 -3.78833 -0.66606 -1.24573 2.13738 3.3232 -1.58365 -0.0 0.0 0.0 -0.0 0.0 0.0 4.45687e-14 3.58233e-14 -2.23879e-13 21.2394 1.67904 -1.23138 -3.97735 -1.76153 6.2609 0.0235599 3.4065 0.475702 7.8115e-10 -1.29298e-09 -4.84185e-10 1.34471e-09 -2.23835e-09 -8.45608e-10 7.81158e-10 -1.29298e-09 -4.84196e-10 7.73091 5.47488 0.417314 7.8115e-10 -1.29298e-09 -4.84183e-10 2.90554 0.965183 0.102902 7.81155e-10 -1.29298e-09 -4.84188e-10 10.2786 0.731801 0.0259123 7.81145e-10 -1.29298e-09 -4.84182e-10 2.22167 -0.733487 -0.20892 4.45879e-14 3.58263e-14 -2.24236e-13 -22.8841 3.25659 0.143418 3.34588 -1.38007 -5.36833 -0.0108807 2.31454 -0.324329 6.02521e-10 -1.12064e-09 -6.43699e-10 1.0356e-09 -1.94676e-09 -1.1175e-09 6.02513e-10 -1.12064e-09 -6.43688e-10 -7.73091 5.47488 -0.417314 6.02519e-10 -1.12064e-09 -6.43707e-10 -2.90554 0.965183 -0.102902 6.02516e-10 -1.12064e-09 -6.43701e-10 -10.2786 0.731801 -0.0259123 6.02525e-10 -1.12064e-09 -6.43711e-10 -2.22167 -0.733487 0.20892 -2.03217e-16 0.0 -3.88251e-19 -1.45934 -8.40972 -0.636912 0.0522643 9.23444 0.146219 -0.925404 -1.5201 -3.06827 2.03217e-16 0.0 3.88251e-19 -3.25779 -7.64759 -0.20186 -0.038516 13.8289 -0.248006 0.714964 -4.15557 1.24834
-5.39279 82.4757 29.879 3.0853 -35.4436 0.5296 -4.30074 -0.293131 -1.42232 2.81331 -0.223737 -0.48425 -7.82492 -1.37204 -2.56018 4.5903 6.8367 -3.26909 -0.0 0.0 0.0 -0.0 0.0 0.0 7.5593e-14 7.43509e-14 -4.83646e-13 43.7678 3.43775 -2.54567 -7.7644 -3.55244 12.8958 -0.0134354 6.99918 0.983131 1.53003e-09 -2.79584e-09 -1.03515e-09 2.63309e-09 -4.84009e-09 -1.80827e-09 1.53004e-09 -2.79584e-09 -1.03516e-09 7.73091 5.47488 0.417314 1.53003e-09 -2.79584e-09 -1.03515e-09 2.90554 0.965183 0.102902 1.53003e-09 -2.79584e-09 -1.03515e-09 10.2786 0.731801 0.0259123 1.53002e-09 -2.79584e-09 -1.03514e-09 2.22167 -0.733487 -0.20892 7.56342e-14 7.43566e-14 -4.8396e-13 -47.0971 6.68393 0.305176 6.59982 -2.7966 -11.0481 0.00621347 4.76599 -0.669644 1.1527e-09 -2.38205e-09 -1.37344e-09 1.98024e-09 -4.13852e-09 -2.3847e-09 1.15269e-09 -2.38206e-09 -1.37343e-09 -7.73091 5.47488 -0.417314 1.1527e-09 -2.38206e-09 -1.37345e-09 -2.90554 0.965183 -0.102902 1.15269e-09 -2.38205e-09 -1.37344e-09 -10.2786 0.731801 -0.0259123 1.1527e-09 -2.38206e-09 -1.37345e-09 -2.22167 -0.733487 0.20892 -2.03217e-16 0.0 -3.88251e-19 -2.31367 -15.2667 -1.34211 0.0168565 21.2013 0.402664 -2.06386 -7.30948 -6.49809 2.03217e-16 0.0 3.88251e-19 -4.82976 -8.48308 -0.591218 -0.029887 21.2046 -0.434194 1.13664 -8.5434 2.65222
-5.49071 82.5141 29.8856 3.0677 -35.4409 0.6583 -5.48811 -0.428232 -2.04864 4.31165 -0.322817 -0.667781 -11.4518 -1.9944 -3.73919 6.96969 9.93892 -4.8154 -0.0 0.0 0.0 -0.0 0.0 0.0 1.01206e-13 1.07327e-13 -6.72433e-13 63.9352 5.02779 -3.70685 -10.7964 -5.03268 18.8492 -0.101324 10.2166 1.44754 2.02696e-09 -3.88041e-09 -1.45657e-09 3.48756e-09 -6.71757e-09 -2.54372e-09 2.02697e-09 -3.8804e-09 -1.45658e-09 7.73091 5.47488 0.417314 2.02696e-09 -3.88041e-09 -1.45657e-09 2.90554 0.965183 0.102902 2.02696e-09 -3.88041e-09 -1.45657e-09 10.2786 0.731801 0.0259123 2.02695e-09 -3.88041e-09 -1.45656e-09 2.22167 -0.733487 -0.20892 1.0126e-13 1.07335e-13 -6.72708e-13 -68.7017 9.76953 0.43588 9.27155 -3.99508 -16.1406 0.0464582 6.94272 -0.979375 1.49096e-09 -3.36332e-09 -1.93511e-09 2.56004e-09 -5.84273e-09 -3.3594e-09 1.49095e-09 -3.36334e-09 -1.9351e-09 -7.73091 5.47488 -0.417314 1.49095e-09 -3.36333e-09 -1.93511e-09 -2.90554 0.965183 -0.102902 1.49095e-09 -3.36332e-09 -1.9351e-09 -10.2786 0.731801 -0.0259123 1.49096e-09 -3.36333e-09 -1.93512e-09 -2.22167 -0.733487 0.20892 -2.03217e-16 0.0 -3.88251e-19 -3.21483 -21.3698 -2.02203 -0.121564 31.8587 0.684654 -3.68331 -12.3883 -9.7012 2.03217e-16 0.0 3.88251e-19 -6.23188 -9.23314 -0.951031 0.0239618 27.783 -0.62269 1.69825 -12.4364 3.94424
-5.62021 82.5505 29.8783 2.9737 -35.5015 0.7521 -6.29401 -0.529784 -2.46945 5.33487 -0.375253 -0.791789 -13.993 -2.41129 -4.57766 8.77053 12.0418 -5.95234 -0.0 0.0 0.0 -0.0 0.0 0.0 1.13289e-13 1.26423e-13 -6.8377e-13 78.0471 6.20514 -4.47344 -12.7317 -5.97525 23.0354 -0.195515 12.4988 1.78528 1.89403e-09 -3.91925e-09 -1.55412e-09 3.25724e-09 -6.78441e-09 -2.71112e-09 1.89404e-09 -3.91925e-09 -1.55413e-09 7.73091 5.47488 0.417314 1.89403e-09 -3.91925e-09 -1.55412e-09 2.90554 0.965183 0.102902 1.89403e-09 -3.91925e-09 -1.55412e-09 10.2786 0.731801 0.0259123 1.89402e-09 -3.91925e-09 -1.55411e-09 2.22167 -0.733487 -0.20892 1.13333e-13 1.26432e-13 -6.84018e-13 -83.7457 12.0011 0.482923 11.0212 -4.78549 -19.731 0.0880341 8.43351 -1.19397 1.29941e-09 -3.64423e-09 -2.0766e-09 2.22777e-09 -6.32806e-09 -3.60284e-09 1.2994e-09 -3.64425e-09 -2.0766e-09 -7.73091 5.47488 -0.417314 1.2994e-09 -3.64424e-09 -2.07661e-09 -2.90554 0.965183 -0.102902 1.2994e-09 -3.64423e-09 -2.0766e-09 -10.2786 0.731801 -0.0259123 1.29941e-09 -3.64424e-09 -2.07661e-09 -2.22167 -0.733487 0.20892 -2.03217e-16 0.0 -3.88251e-19 -3.89715 -25.5985 -2.52838 -0.298729 39.2445 0.936343 -5.1819 -15.8577 -12.0939 2.03217e-16 0.0 3.88251e-19 -7.18823 -9.77049 -1.23375 0.0923044 32.3691 -0.77235 2.19588 -15.1169 4.87717
-5.71786 82.5863 29.8767 2.8953 -35.4319 0.8037 -6.55306 -0.584462 -2.60261 5.68686 -0.358297 -0.83264 -14.985 -2.54752 -4.94001 9.5911 12.7696 -6.47737 -0.0 0.0 0.0 -0.0 0.0 0.0 1.06571e-13 1.284e-13 -3.44027e-13 83.6193 6.7225 -4.67228 -13.4495 -6.31833 24.6802 -0.246241 13.5583 1.94469 3.97728e-10 -1.7937e-09 -1.01349e-09 6.77992e-10 -3.10345e-09 -1.75821e-09 3.9774e-10 -1.7937e-09 -1.01351e-09 7.73091 5.47488 0.417314 3.97729e-10 -1.79371e-09 -1.0135e-09 2.90554 0.965183 0.102902 3.97731e-10 -1.79371e-09 -1.0135e-09 10.2786 0.731801 0.0259123 3.97722e-10 -1.7937e-09 -1.01349e-09 2.22167 -0.733487 -0.20892 1.06564e-13 1.28408e-13 -3.44263e-13 -89.5824 13.0326 0.409645 11.7089 -5.10041 -21.2004 0.106194 8.96746 -1.27148 -8.98956e-11 -2.65164e-09 -1.4525e-09 -1.6817e-10 -4.59489e-09 -2.51193e-09 -8.99025e-11 -2.65166e-09 -1.4525e-09 -7.73091 5.47488 -0.417314 -8.99025e-11 -2.65165e-09 -1.45251e-09 -2.90554 0.965183 -0.102902 -8.99026e-11 -2.65164e-09 -1.4525e-09 -10.2786 0.731801 -0.0259123 -8.98908e-11 -2.65165e-09 -1.45251e-09 -2.22167 -0.733487 0.20892 -2.03217e-16 0.0 -3.88251e-19 -4.08647 -27.209 -2.70512 -0.390135 42.0466 1.05222 -5.89725 -17.2029 -13.1671 2.03217e-16 0.0 3.88251e-19 -7.49989 -10.015 -1.41462 0.12738 34.1699 -0.835431 2.41288 -16.1204 5.25297
-5.80072 82.6199 29.8611 2.8043 -35.281 0.9291 -6.42116 -0.605706 -2.53029 5.5598 -0.291971 -0.814085 -14.8644 -2.48379 -4.96182 9.66694 12.5214 -6.55244 -0.0 0.0 0.0 -0.0 0.0 0.0 8.64168e-14 1.18038e-13 2.41598e-13 83.075 6.77434 -4.46329 -13.3723 -6.28148 24.5013 -0.251874 13.7412 1.97186 -2.04948e-09 1.84448e-09 -2.58253e-11 -3.53954e-09 3.19676e-09 -2.05713e-11 -2.04947e-09 1.84448e-09 -2.58383e-11 7.73091 5.47488 0.417314 -2.04948e-09 1.84448e-09 -2.58271e-11 2.90554 0.965183 0.102902 -2.04947e-09 1.84448e-09 -2.58299e-11 10.2786 0.731801 0.0259123 -2.04948e-09 1.84448e-09 -2.58215e-11 2.22167 -0.733487 -0.20892 8.63296e-14 1.18046e-13 2.41365e-13 -88.84 13.2069 0.24945 11.6906 -5.10375 -21.1489 0.101988 8.81799 -1.24985 -2.31303e-09 -7.63359e-10 -2.89992e-10 -4.00069e-09 -1.30145e-09 -4.82712e-10 -2.31303e-09 -7.6337e-10 -2.8999e-10 -7.73091 5.47488 -0.417314 -2.31303e-09 -7.63365e-10 -2.90001e-10 -2.90554 0.965183 -0.102902 -2.31303e-09 -7.63362e-10 -2.8999e-10 -10.2786 0.731801 -0.0259123 -2.31302e-09 -7.63364e-10 -2.9e-10 -2.22167 -0.733487 0.20892 -2.03217e-16 0.0 -3.88251e-19 -3.88221 -26.9517 -2.62232 -0.375581 41.5754 1.03619 -5.89731 -17.0723 -13.2355 2.03217e-16 0.0 3.88251e-19 -7.34897 -10.0503 -1.5219 0.123959 33.9812 -0.826566 2.38335 -15.9309 5.21398
-5.88904 82.6504 29.8531 2.8086 -35.1861 1.0038 -6.14831 -0.613683 -2.37567 5.25185 -0.212463 -0.771479 -14.3017 -2.33292 -4.84425 9.42718 11.8777 -6.44007 -0.0 0.0 0.0 -0.0 0.0 0.0 6.06653e-14 9.9042e-14 7.61338e-13 80.0723 6.78147 -4.10215 -13.0013 -6.11105 23.64 -0.232682 13.4373 1.92526 -4.10653e-09 4.96713e-09 8.45039e-10 -7.08398e-09 8.60402e-09 1.51091e-09 -4.10653e-09 4.96713e-09 8.45026e-10 7.73091 5.47488 0.417314 -4.10653e-09 4.96712e-09 8.45036e-10 2.90554 0.965183 0.102902 -4.10653e-09 4.96712e-09 8.4503e-10 10.2786 0.731801 0.0259123 -4.10654e-09 4.96712e-09 8.45038e-10 2.22167 -0.733487 -0.20892 6.04998e-14 9.90478e-14 7.611e-13 -85.4748 13.0458 0.0531602 11.3893 -4.98185 -20.484 0.0891282 8.39054 -1.188 -4.14004e-09 1.01441e-09 8.04109e-10 -7.14903e-09 1.79675e-09 1.42493e-09 -4.14004e-09 1.0144e-09 8.04109e-10 -7.73091 5.47488 -0.417314 -4.14004e-09 1.0144e-09 8.04101e-10 -2.90554 0.965183 -0.102902 -4.14004e-09 1.01441e-09 8.04111e-10 -10.2786 0.731801 -0.0259123 -4.14003e-09 1.0144e-09 8.04101e-10 -2.22167 -0.733487 0.20892 -2.03217e-16 0.0 -3.88251e-19 -3.54965 -25.9491 -2.44454 -0.319787 39.8029 0.968296 -5.5973 -16.3533 -12.8815 2.03217e-16 0.0 3.88251e-19 -7.03014 -9.99473 -1.58722 0.105131 32.9916 -0.788952 2.25401 -15.2602 5.00496
-5.97863 82.6722 29.8421 2.7556 -35.1194 1.1232 -5.98468 -0.628555 -2.26193 5.06137 -0.155961 -0.740179 -13.9676 -2.20768 -4.78846 9.30525 11.4176 -6.40322 -0.0 0.0 0.0 -0.0 0.0 0.0 3.71561e-14 7.5113e-14 9.03427e-13 78.2655 7.1653 -3.84443 -12.835 -6.05166 23.238 -0.213084 13.0365 1.86477 -4.4324e-09 5.54603e-09 1.03525e-09 -7.64397e-09 9.60612e-09 1.84535e-09 -4.43239e-09 5.54603e-09 1.03524e-09 7.73091 5.47488 0.417314 -4.43239e-09 5.54603e-09 1.03525e-09 2.90554 0.965183 0.102902 -4.43239e-09 5.54603e-09 1.03524e-09 10.2786 0.731801 0.0259123 -4.4324e-09 5.54603e-09 1.03525e-09 2.22167 -0.733487 -0.20892 3.69433e-14 7.51169e-14 9.03178e-13 -83.4386 13.071 -0.129307 11.222 -4.91774 -20.1138 0.0809603 8.09055 -1.14475 -4.34099e-09 1.67546e-09 1.22298e-09 -7.49241e-09 2.9442e-09 2.15111e-09 -4.341e-09 1.67546e-09 1.22298e-09 -7.73091 5.47488 -0.417314 -4.341e-09 1.67545e-09 1.22297e-09 -2.90554 0.965183 -0.102902 -4.34099e-09 1.67546e-09 1.22298e-09 -10.2786 0.731801 -0.0259123 -4.34099e-09 1.67546e-09 1.22297e-09 -2.22167 -0.733487 0.20892 -2.03217e-16 0.0 -3.88251e-19 -3.35006 -25.3239 -2.33458 -0.288175 38.701 0.92897 -5.43162 -15.9271 -12.694 2.03217e-16 0.0 3.88251e-19 -6.83932 -9.96649 -1.6425 0.0945751 32.3896 -0.766228 2.17272 -14.8196 4.87094
